<svg width="128" height="32" viewBox="0 0 128 32" fill="none" xmlns="http://www.w3.org/2000/svg">
    <path
        d="M66.3849 13.2917C65.595 12.5338 64.6536 11.9354 63.5686 11.5046C62.4916 11.0738 61.3108 10.8584 60.0742 10.8584C58.8297 10.8584 57.6569 11.0738 56.5798 11.5046C55.5028 11.9354 54.5534 12.5338 53.7636 13.2917C52.9738 14.0496 52.3515 14.9511 51.9047 15.9883C51.4579 17.0254 51.2266 18.1663 51.2266 19.379C51.2266 20.5757 51.4499 21.7006 51.9047 22.7377C52.3515 23.7749 52.9817 24.6764 53.7636 25.4343C54.5534 26.1922 55.5028 26.7986 56.5798 27.2374C57.6569 27.6761 58.8376 27.8995 60.0742 27.8995C61.3108 27.8995 62.4916 27.6761 63.5686 27.2374C64.6457 26.7986 65.595 26.1922 66.3849 25.4343C67.1747 24.6764 67.797 23.7669 68.2438 22.7377C68.6905 21.7086 68.9219 20.5757 68.9219 19.379C68.9219 18.1583 68.6985 17.0175 68.2438 15.9883C67.797 14.9511 67.1747 14.0496 66.3849 13.2917ZM65.0685 21.5969C64.8052 22.275 64.4303 22.8734 63.9675 23.3919C63.4968 23.9105 62.9144 24.3174 62.2522 24.6046C61.5901 24.8918 60.8561 25.0354 60.0742 25.0354C59.2764 25.0354 58.5345 24.8918 57.8803 24.6046C57.2261 24.3174 56.6516 23.9105 56.1809 23.3919C55.7102 22.8813 55.3432 22.275 55.08 21.5969C54.8167 20.9187 54.6811 20.1768 54.6811 19.379C54.6811 18.5812 54.8167 17.8232 55.08 17.1292C55.3432 16.4271 55.7182 15.8208 56.1889 15.3181C56.6596 14.8155 57.2261 14.4086 57.8882 14.1214C58.5424 13.8342 59.2764 13.6906 60.0822 13.6906C60.8641 13.6906 61.5901 13.8342 62.2602 14.1214C62.9304 14.4086 63.5048 14.8155 63.9755 15.3181C64.4462 15.8208 64.8212 16.4351 65.0845 17.1292C65.3477 17.8232 65.4754 18.5812 65.4754 19.379C65.4674 20.1688 65.3318 20.9187 65.0685 21.5969Z"
        fill="#7E7E89" />
    <path
        d="M47.582 19.3467C46.6007 18.6127 45.2046 18.1181 43.4335 17.8867L40.1545 17.4719C39.2849 17.3682 38.5987 17.1687 38.128 16.8735C37.6494 16.5783 37.418 16.1635 37.418 15.605C37.418 14.3046 38.6705 13.6424 41.1437 13.6424C42.0373 13.6424 42.8351 13.7142 43.5212 13.8498C44.1993 13.9855 44.7897 14.145 45.2844 14.3285C45.771 14.512 46.1699 14.6955 46.4571 14.871C46.6646 14.9987 46.8161 15.1024 46.9199 15.1902C46.9598 15.2221 46.9996 15.238 47.0475 15.238C47.0874 15.238 47.1273 15.23 47.1592 15.2061C47.1991 15.1822 47.247 15.1503 47.3028 15.1024C47.4305 15.0067 47.5501 14.887 47.6698 14.7354C47.7895 14.5838 47.8932 14.4163 47.9889 14.2248C48.0847 14.0333 48.1325 13.81 48.1325 13.5467C48.1325 12.7568 47.5102 12.1106 46.2816 11.616C45.053 11.1293 43.3058 10.874 41.0959 10.874C39.7715 10.874 38.6307 11.0097 37.7052 11.2729C36.7797 11.5362 36.0139 11.9112 35.4394 12.3819C34.865 12.8526 34.4342 13.3951 34.1709 14.0014C33.9076 14.6078 33.772 15.262 33.772 15.9481C33.772 16.7379 33.9156 17.424 34.2028 17.9905C34.49 18.5569 34.8969 19.0356 35.4075 19.4185C35.9181 19.8015 36.5404 20.1126 37.2584 20.336C37.9685 20.5594 38.7663 20.719 39.6199 20.7987L42.1251 21.0859C43.2898 21.2136 44.0797 21.429 44.5344 21.7481C44.9812 22.0593 45.2126 22.514 45.2126 23.1124C45.2126 23.8224 44.8695 24.3171 44.1515 24.6043C43.4494 24.8915 42.524 25.0351 41.423 25.0351C40.5693 25.0351 39.7635 24.9713 39.0455 24.8436C38.3195 24.716 37.6653 24.5564 37.0989 24.3809C36.5324 24.1974 36.0537 24.0219 35.6708 23.8543C35.4075 23.7347 35.2001 23.6389 35.0405 23.5512C35.0086 23.5352 34.9767 23.5272 34.9368 23.5272C34.9209 23.5272 34.8969 23.5272 34.881 23.5352C34.8251 23.5512 34.7852 23.5831 34.7533 23.6309L33.5646 25.7531C33.5087 25.8488 33.5407 25.9685 33.6364 26.0244C33.764 26.1041 33.9715 26.2238 34.3145 26.3914C34.7374 26.6068 35.3038 26.8301 35.9979 27.0535C36.692 27.2769 37.5217 27.4764 38.4551 27.6519C39.3966 27.8194 40.4497 27.9072 41.6065 27.9072C43.9919 27.9072 45.8508 27.4205 47.1193 26.4632C48.4038 25.4898 49.0341 24.2293 49.0341 22.6097C49.066 21.1577 48.5793 20.0887 47.582 19.3467Z"
        fill="#7E7E89" />
    <path
        d="M95.1541 12.4221C94.5318 11.9115 93.7899 11.5206 92.9362 11.2653C92.0826 11.01 91.1491 10.8823 90.1758 10.8823C88.8754 10.8823 87.6946 11.1296 86.6735 11.6243C85.6523 12.1189 84.8146 12.8529 84.2003 13.8103C83.578 12.8529 82.7403 12.1189 81.6951 11.6243C80.65 11.1296 79.4533 10.8823 78.1289 10.8823C77.1317 10.8823 76.1903 11.018 75.3366 11.2812C74.483 11.5445 73.733 11.9434 73.1028 12.454C72.4725 12.9646 71.9699 13.6188 71.6109 14.3847C71.2519 15.1506 71.0684 16.0601 71.0684 17.0813V27.2533C71.0684 27.365 71.1641 27.4607 71.2758 27.4607H74.5229C74.6346 27.4607 74.7303 27.365 74.7303 27.2533V18.3338C74.7303 16.8659 75.0733 15.7888 75.7595 15.1506C76.4376 14.5123 77.3471 14.1852 78.4561 14.1852C79.5411 14.1852 80.4665 14.5443 81.2005 15.2463C81.9345 15.9484 82.3094 17.1052 82.3094 18.6849V27.2533C82.3094 27.365 82.4052 27.4607 82.5169 27.4607H85.764C85.8756 27.4607 85.9714 27.365 85.9714 27.2533V18.6849C85.9714 17.1052 86.3464 15.9484 87.0803 15.2463C87.8143 14.5443 88.7398 14.1852 89.8248 14.1852C90.9577 14.1852 91.8592 14.5044 92.5214 15.1346C93.1835 15.7649 93.5186 16.826 93.5186 18.3019V27.2533C93.5186 27.365 93.6144 27.4607 93.7261 27.4607H96.9731C97.0848 27.4607 97.1806 27.365 97.1806 27.2533V17.0494C97.1806 16.0282 96.9971 15.1187 96.638 14.3528C96.2631 13.5789 95.7684 12.9327 95.1541 12.4221Z"
        fill="#7E7E89" />
    <path
        d="M113.2 12.47C112.61 11.9913 111.884 11.6003 111.03 11.3131C110.176 11.0259 109.179 10.8823 108.07 10.8823C106.81 10.8823 105.637 11.0898 104.584 11.5126C103.531 11.9274 102.597 12.5258 101.823 13.2837C101.041 14.0416 100.427 14.9591 99.9883 16.0122C99.5496 17.0653 99.3262 18.2541 99.3262 19.5305C99.3262 20.8709 99.5496 22.0755 100.004 23.1127C100.451 24.1498 101.073 25.0354 101.855 25.7455C102.629 26.4635 103.555 27.006 104.584 27.365C105.613 27.724 106.746 27.9075 107.942 27.9075C108.796 27.9075 109.586 27.8437 110.304 27.716C111.022 27.5884 111.66 27.4368 112.203 27.2693C112.745 27.1017 113.2 26.9182 113.567 26.7268C113.83 26.5911 114.038 26.4715 114.197 26.3757C114.293 26.3199 114.325 26.2002 114.277 26.1045C114.277 26.1045 113.296 23.8706 111.182 24.469C110.799 24.5807 110.655 24.6205 110.184 24.7003C109.714 24.7881 109.195 24.828 108.645 24.828C107.001 24.828 105.717 24.4849 104.839 23.8148C103.953 23.1446 103.419 22.2511 103.251 21.166C103.682 21.19 104.081 21.2059 104.456 21.2139C104.831 21.2219 105.23 21.2299 105.661 21.2299C107.496 21.2299 109.027 21.1022 110.224 20.8629C111.421 20.6156 112.378 20.2725 113.08 19.8337C113.782 19.3949 114.277 18.8684 114.556 18.262C114.836 17.6557 114.971 16.9616 114.971 16.2196C114.971 15.4936 114.82 14.8075 114.524 14.1613C114.237 13.5151 113.79 12.9486 113.2 12.47ZM111.221 17.0813C111.094 17.3844 110.823 17.6477 110.416 17.8871C110.009 18.1184 109.434 18.3179 108.716 18.4615C107.99 18.6131 107.033 18.6849 105.86 18.6849H104.512C104.065 18.6849 103.594 18.6769 103.1 18.653C103.124 18.0386 103.243 17.4164 103.467 16.818C103.69 16.2196 104.009 15.6851 104.416 15.2304C104.823 14.7756 105.326 14.4006 105.924 14.1214C106.522 13.8422 107.224 13.7066 108.014 13.7066C108.972 13.7066 109.793 13.914 110.44 14.3209C111.094 14.7277 111.421 15.3421 111.421 16.1478C111.421 16.467 111.349 16.7861 111.221 17.0813Z"
        fill="#7E7E89" />
    <path
        d="M126.891 11.249C126.532 10.9777 126.109 10.8501 125.591 10.8501C125.072 10.8501 124.649 10.9777 124.29 11.249C123.963 11.4963 123.796 11.7835 123.772 12.1346H123.764V27.2769C123.764 27.3647 123.859 27.4285 123.971 27.4285H127.218C127.33 27.4285 127.426 27.3567 127.426 27.2769V12.1346H127.418C127.386 11.7915 127.218 11.4963 126.891 11.249Z"
        fill="#7E7E89" />
    <path
        d="M120.278 4.49949C119.919 4.22823 119.496 4.10059 118.977 4.10059C118.459 4.10059 118.036 4.22823 117.677 4.49949C117.35 4.74681 117.182 5.03402 117.158 5.38505H117.15V27.3088C117.15 27.3965 117.246 27.4603 117.358 27.4603H120.605C120.717 27.4603 120.812 27.3885 120.812 27.3088V5.37708H120.804C120.772 5.03402 120.605 4.74681 120.278 4.49949Z"
        fill="#7E7E89" />
    <path
        d="M125.59 8.2093C124.449 8.2093 123.523 7.28384 123.523 6.14298C123.523 5.00211 124.449 4.07666 125.59 4.07666C126.731 4.07666 127.656 5.00211 127.656 6.14298C127.656 7.28384 126.731 8.2093 125.59 8.2093Z"
        fill="#ED6B51" />
    <path
        d="M2.50511 32C2.11419 32 1.73124 31.8883 1.39616 31.6809C1.26053 31.5931 1.14884 31.5054 1.04513 31.4016C0.94939 31.3059 0.861631 31.1942 0.78185 31.0825C0.343057 30.3884 0.335079 29.5348 0.765894 28.8487C0.853653 28.7051 0.941412 28.5934 1.04513 28.4897C1.10097 28.4258 1.19671 28.2982 1.22064 28.2423L3.43854 26.0883L13.2835 16.2673C13.3473 16.2034 13.4191 16.1715 13.4989 16.1715C13.5787 16.1715 13.6584 16.2034 13.7223 16.2673L16.1875 18.7325C16.3072 18.8522 16.3072 19.0516 16.1875 19.1713L3.9651 31.4016C3.86936 31.4974 3.75767 31.5851 3.64597 31.6649C3.27898 31.8883 2.90401 32 2.50511 32ZM19.5702 27.0536C18.4293 27.0536 17.5039 26.1281 17.5039 24.9873C17.5039 23.8464 18.4293 22.921 19.5702 22.921C20.711 22.921 21.6365 23.8464 21.6365 24.9873C21.6365 26.1202 20.711 27.0536 19.5702 27.0536ZM24.9554 21.6205C24.4049 21.6205 23.8863 21.4051 23.4954 21.0142L17.456 14.9748C17.0651 14.5839 16.8497 14.0653 16.8497 13.5148C16.8497 12.9643 17.0651 12.4458 17.456 12.0548L23.4954 6.01546C23.8863 5.62453 24.4049 5.40912 24.9554 5.40912C25.5059 5.40912 26.0244 5.62453 26.4154 6.01546C26.8063 6.40638 27.0217 6.91698 27.0217 7.47544C27.0217 8.02593 26.8063 8.5445 26.4154 8.93543L22.538 12.8128C22.3465 13.0042 22.2428 13.2516 22.2428 13.5228C22.2428 13.7861 22.3465 14.0414 22.538 14.2249L26.4154 18.1022C26.8063 18.4931 27.0217 19.0117 27.0217 19.5622C27.0217 20.1127 26.8063 20.6313 26.4154 21.0222C26.0244 21.4051 25.5059 21.6205 24.9554 21.6205ZM2.06632 21.6205C1.51583 21.6205 0.997258 21.4051 0.606333 21.0142C0.215408 20.6233 0.00797855 20.1047 0.00797855 19.5542C0.00797855 19.0037 0.223386 18.4852 0.606333 18.0942L4.48367 14.2169C4.67514 14.0334 4.77886 13.7781 4.77886 13.5069C4.77886 13.2436 4.67514 12.9883 4.48367 12.7968L0.606333 8.91947C0.215408 8.52855 0 8.00997 0 7.45949C0 6.909 0.215408 6.39043 0.598355 5.9995C0.98928 5.60858 1.50785 5.39317 2.05834 5.39317C2.60883 5.39317 3.1274 5.60858 3.51833 5.9995L9.56569 12.0389C9.95662 12.4298 10.172 12.9484 10.172 13.4989C10.172 14.0494 9.95662 14.5679 9.56569 14.9589L3.51833 20.9983C3.13538 21.4051 2.6168 21.6205 2.06632 21.6205ZM13.5148 10.172C12.9643 10.172 12.4458 9.95662 12.0549 9.56569L6.01546 3.5263C5.62453 3.13538 5.4171 2.6168 5.4171 2.06632C5.4171 1.51583 5.63251 0.997257 6.01546 0.606332C6.40638 0.215407 6.92496 0 7.47544 0C8.02593 0 8.5445 0.215407 8.93543 0.606332L12.8128 4.48367C12.9963 4.67514 13.2516 4.77886 13.5228 4.77886C13.7941 4.77886 14.0414 4.67514 14.2329 4.48367L18.1102 0.606332C18.5011 0.215407 19.0197 0 19.5702 0C20.1207 0 20.6392 0.215407 21.0302 0.606332C21.4211 0.997257 21.6365 1.51583 21.6365 2.06632C21.6365 2.6168 21.4211 3.13538 21.0302 3.5263L14.9908 9.56569C14.5839 9.95662 14.0653 10.172 13.5148 10.172Z"
        fill="#ED6B51" />
</svg>